<svg xmlns="http://www.w3.org/2000/svg" xmlns:xlink="http://www.w3.org/1999/xlink" viewBox="0,0,255.99704,255.99704" width="32px" height="32px" fill-rule="nonzero"><g fill="#ffffff" fill-rule="nonzero" stroke="none" stroke-width="1" stroke-linecap="butt" stroke-linejoin="miter" stroke-miterlimit="10" stroke-dasharray="" stroke-dashoffset="0" font-family="none" font-weight="none" font-size="none" text-anchor="none" style="mix-blend-mode: normal"><g transform="scale(8,8)"><path d="M8,4v2h16v-2zM24,6v2h2v-2zM26,8v13h2v-13zM26,21h-2v2h2zM24,23h-14v2h14zM10,25h-2v2h2zM8,27h-2v2h2zM6,27v-19h-2v19zM6,8h2v-2h-2zM15,9v2h2v-2zM14,13v2h1v5h3v-2h-1v-5z"></path></g></g></svg>