<svg xmlns="http://www.w3.org/2000/svg" xmlns:xlink="http://www.w3.org/1999/xlink" viewBox="0,0,255.99704,255.99704" width="32px" height="32px" fill-rule="nonzero"><g fill="#ffffff" fill-rule="nonzero" stroke="none" stroke-width="1" stroke-linecap="butt" stroke-linejoin="miter" stroke-miterlimit="10" stroke-dasharray="" stroke-dashoffset="0" font-family="none" font-weight="none" font-size="none" text-anchor="none" style="mix-blend-mode: normal"><g transform="scale(8,8)"><path d="M13,4v2h-4v2h-4v2h-3v1v1v1h2v15h24v-15h2v-1v-1v-1h-3v-1v-1v-4h-2v4h-2v-2h-4v-2zM14,7h4v1v1h4v1v1h4v1v1v13h-4v-12h-12v12h-4v-13v-1v-1h4v-1v-1h4v-1zM12,16h8v4h-2v2h2v4h-8z"></path></g></g></svg>