<svg xmlns="http://www.w3.org/2000/svg" xmlns:xlink="http://www.w3.org/1999/xlink" viewBox="0,0,255.99704,255.99704" width="32px" height="32px" fill-rule="nonzero"><g fill="#ffffff" fill-rule="nonzero" stroke="none" stroke-width="1" stroke-linecap="butt" stroke-linejoin="miter" stroke-miterlimit="10" stroke-dasharray="" stroke-dashoffset="0" font-family="none" font-weight="none" font-size="none" text-anchor="none" style="mix-blend-mode: normal"><g transform="scale(8,8)"><path d="M7,6v2h18v-2zM25,8v2h2v-2zM27,10v12h2v-12zM27,22h-2v2h2zM25,24h-18v2h18zM7,24v-2h-2v2zM5,22v-12h-2v12zM5,10h2v-2h-2zM13,12v8h2v-1h2v-1h2v-1h2v-2h-2v-1h-2v-1h-2v-1z"></path></g></g></svg>